<svg width="195" height="22" viewBox="0 0 195 22" fill="none" xmlns="http://www.w3.org/2000/svg">
<path d="M30.7 11.584C30.7 13.558 32.296 15.154 34.27 15.154C35.46 15.154 36.454 14.58 37.07 13.67L36.3 13.068C35.754 13.796 35.082 14.16 34.284 14.16C32.87 14.16 31.806 13.012 31.806 11.584C31.806 10.17 32.87 9.022 34.284 9.022C35.082 9.022 35.768 9.386 36.314 10.128L37.084 9.512C36.468 8.602 35.46 8.028 34.27 8.028C32.324 8 30.658 9.638 30.7 11.584ZM38.2742 11.584C38.2462 13.502 39.8842 15.182 41.8302 15.14C43.7762 15.182 45.4562 13.502 45.4142 11.584C45.4562 9.638 43.7902 8 41.8442 8.028C39.8982 7.986 38.2322 9.638 38.2742 11.584ZM44.3082 11.598C44.3082 13.026 43.2162 14.146 41.8302 14.146C40.4442 14.146 39.3802 13.026 39.3802 11.598C39.3802 10.128 40.4442 9.022 41.8442 9.022C43.2302 9.022 44.3082 10.128 44.3082 11.598ZM52.9511 10.716C52.9511 9.106 51.9991 8.028 50.4171 8.028C49.5631 8.028 48.8211 8.35 48.3171 8.91V8.182H47.3091V15H48.3871V10.842C48.3871 9.778 49.1291 9.022 50.1791 9.022C51.2291 9.022 51.8731 9.764 51.8731 10.842V15H52.9511V10.716ZM58.9628 14.09C58.6128 14.146 58.3188 14.174 58.0528 14.174C57.1148 14.174 56.6108 13.838 56.6108 12.872V9.148H58.7388V8.182H56.6108V6.32H55.5328V8.182H54.3848V9.148H55.5328V12.942C55.5328 14.44 56.4148 15.154 57.8288 15.154C58.1508 15.154 58.5288 15.098 58.9628 15V14.09ZM65.6809 10.8C65.6809 9.008 64.6309 8.028 63.0209 8.028C61.8869 8.028 60.8649 8.518 60.2489 9.526L60.9629 10.114C61.5229 9.386 62.1249 9.022 62.9509 9.022C63.9729 9.022 64.6029 9.624 64.6029 10.744V11.332H62.4469C60.9769 11.332 59.9969 12.074 59.9969 13.236C59.9969 14.412 60.9769 15.154 62.3769 15.154C63.3709 15.154 64.1689 14.79 64.6729 14.118V15H65.6809V10.8ZM64.6029 12.382C64.6029 13.432 63.6369 14.258 62.5169 14.258C61.7189 14.258 61.1029 13.866 61.1029 13.18C61.1029 12.55 61.6209 12.214 62.5729 12.214H64.6029V12.382ZM67.4773 11.584C67.4773 13.558 69.0733 15.154 71.0473 15.154C72.2373 15.154 73.2313 14.58 73.8473 13.67L73.0773 13.068C72.5313 13.796 71.8593 14.16 71.0613 14.16C69.6473 14.16 68.5833 13.012 68.5833 11.584C68.5833 10.17 69.6473 9.022 71.0613 9.022C71.8593 9.022 72.5453 9.386 73.0913 10.128L73.8613 9.512C73.2453 8.602 72.2373 8.028 71.0473 8.028C69.1013 8 67.4353 9.638 67.4773 11.584ZM79.4023 14.09C79.0523 14.146 78.7583 14.174 78.4923 14.174C77.5543 14.174 77.0503 13.838 77.0503 12.872V9.148H79.1783V8.182H77.0503V6.32H75.9723V8.182H74.8243V9.148H75.9723V12.942C75.9723 14.44 76.8543 15.154 78.2683 15.154C78.5903 15.154 78.9683 15.098 79.4023 15V14.09ZM92.0563 10.996C92.1123 8.196 89.5783 5.746 86.4423 5.802C83.1943 5.746 80.4223 8.322 80.4923 11.556C80.4363 14.734 83.1243 17.352 86.2883 17.282C87.0583 17.282 87.7583 17.156 88.4023 16.904L88.2063 16.064C87.6323 16.274 87.0303 16.372 86.3863 16.372C83.6983 16.414 81.4583 14.3 81.5003 11.542C81.4583 8.798 83.6563 6.698 86.4703 6.726C89.1443 6.684 91.1183 8.602 91.0763 10.996C91.0763 12.55 90.2923 13.446 89.0603 13.544V8.812H88.0523V9.624C87.6183 9.05 86.8623 8.7 86.0223 8.7C84.3983 8.7 83.2223 10.002 83.2223 11.668C83.2223 13.348 84.4123 14.65 86.0083 14.65C86.9043 14.65 87.7023 14.258 88.1363 13.586V14.496H88.4723C90.5723 14.496 92.0563 13.194 92.0563 10.996ZM87.9963 11.654C87.9963 12.956 87.1563 13.656 86.1903 13.656C85.6583 13.656 85.2103 13.474 84.8603 13.096C84.5103 12.718 84.3283 12.242 84.3283 11.668C84.3283 10.492 85.1263 9.666 86.1903 9.666C87.1843 9.666 87.9963 10.366 87.9963 11.654ZM99.4466 8.182V9.274C98.9286 8.49 97.9346 8.028 96.8566 8.028C94.9386 8.028 93.5106 9.526 93.5106 11.486C93.5106 13.46 94.9386 14.93 96.8566 14.93C97.8786 14.93 98.8446 14.51 99.3906 13.796V14.398C99.3906 15.868 98.5366 16.68 97.1226 16.68C96.1006 16.68 95.3446 16.274 94.5746 15.602L93.9446 16.358C94.7146 17.128 95.8206 17.674 97.1506 17.674C99.1666 17.674 100.469 16.414 100.469 14.342V8.182H99.4466ZM99.4046 11.486C99.4046 13.138 98.2706 13.936 97.0246 13.936C95.6386 13.936 94.6026 12.942 94.6026 11.5C94.6026 10.072 95.6386 9.05 97.0246 9.05C98.2566 9.05 99.4046 9.848 99.4046 11.486ZM106.457 8.182C106.275 8.14 106.107 8.126 105.953 8.126C105.127 8.126 104.329 8.49 103.839 9.148V8.182H102.831V15H103.909V11.136C103.909 9.876 104.903 9.134 106.051 9.134H106.457V8.182ZM113.786 11.92C113.842 11.64 113.87 11.374 113.87 11.108C113.87 9.302 112.526 8.028 110.762 8.028C108.816 8.028 107.276 9.624 107.276 11.598C107.276 13.6 108.858 15.154 110.888 15.154C111.966 15.154 112.904 14.706 113.618 13.964L112.988 13.236C112.372 13.852 111.672 14.16 110.902 14.16C109.558 14.16 108.522 13.264 108.396 11.92H113.786ZM108.438 10.968C108.676 9.792 109.6 9.008 110.734 9.008C111.868 9.008 112.75 9.75 112.764 10.968H108.438ZM121.784 11.92C121.84 11.64 121.868 11.374 121.868 11.108C121.868 9.302 120.524 8.028 118.76 8.028C116.814 8.028 115.274 9.624 115.274 11.598C115.274 13.6 116.856 15.154 118.886 15.154C119.964 15.154 120.902 14.706 121.616 13.964L120.986 13.236C120.37 13.852 119.67 14.16 118.9 14.16C117.556 14.16 116.52 13.264 116.394 11.92H121.784ZM116.436 10.968C116.674 9.792 117.598 9.008 118.732 9.008C119.866 9.008 120.748 9.75 120.762 10.968H116.436ZM129.404 10.716C129.404 9.106 128.452 8.028 126.87 8.028C126.016 8.028 125.274 8.35 124.77 8.91V8.182H123.762V15H124.84V10.842C124.84 9.778 125.582 9.022 126.632 9.022C127.682 9.022 128.326 9.764 128.326 10.842V15H129.404V10.716ZM131.048 13.824C131.65 14.608 132.574 15.154 133.708 15.154C134.38 15.154 134.94 14.986 135.402 14.636C135.864 14.286 136.102 13.782 136.102 13.152C136.102 12.214 135.57 11.682 134.296 11.136L133.666 10.87C132.84 10.52 132.56 10.31 132.56 9.876C132.56 9.33 133.022 9.022 133.694 9.022C134.324 9.022 134.912 9.316 135.374 9.778L136.032 9.106C135.472 8.434 134.702 8.028 133.75 8.028C132.448 8.028 131.454 8.742 131.454 9.932C131.454 10.842 132.014 11.36 133.148 11.822L133.806 12.102C134.646 12.438 134.996 12.648 134.996 13.194C134.996 13.796 134.436 14.16 133.694 14.16C132.924 14.16 132.392 13.782 131.734 13.11L131.048 13.824ZM143.691 10.716C143.691 9.106 142.739 8.028 141.171 8.028C140.317 8.028 139.589 8.378 139.127 8.952V4.5H138.049V15H139.127V10.856C139.127 9.792 139.869 9.022 140.919 9.022C141.969 9.022 142.613 9.75 142.613 10.856V15H143.691V10.716ZM145.489 11.584C145.461 13.502 147.099 15.182 149.045 15.14C150.991 15.182 152.671 13.502 152.629 11.584C152.671 9.638 151.005 8 149.059 8.028C147.113 7.986 145.447 9.638 145.489 11.584ZM151.523 11.598C151.523 13.026 150.431 14.146 149.045 14.146C147.659 14.146 146.595 13.026 146.595 11.598C146.595 10.128 147.659 9.022 149.059 9.022C150.445 9.022 151.523 10.128 151.523 11.598ZM161.482 11.584C161.482 9.582 160.054 8.028 158.108 8.028C157.044 8.028 156.05 8.49 155.532 9.274V8.182H154.524V17.52H155.602V14.02C156.162 14.734 157.1 15.154 158.108 15.154C160.026 15.154 161.482 13.586 161.482 11.584ZM160.376 11.598C160.376 13.068 159.34 14.16 157.954 14.16C156.694 14.16 155.588 13.32 155.588 11.584C155.588 9.862 156.736 9.022 157.954 9.022C159.34 9.022 160.376 10.128 160.376 11.598ZM163.121 14.272C163.121 14.776 163.513 15.154 164.003 15.154C164.493 15.154 164.885 14.776 164.885 14.272C164.885 13.768 164.493 13.39 164.003 13.39C163.513 13.39 163.121 13.768 163.121 14.272ZM166.53 11.584C166.53 13.558 168.126 15.154 170.1 15.154C171.29 15.154 172.284 14.58 172.9 13.67L172.13 13.068C171.584 13.796 170.912 14.16 170.114 14.16C168.7 14.16 167.636 13.012 167.636 11.584C167.636 10.17 168.7 9.022 170.114 9.022C170.912 9.022 171.598 9.386 172.144 10.128L172.914 9.512C172.298 8.602 171.29 8.028 170.1 8.028C168.154 8 166.488 9.638 166.53 11.584ZM174.104 11.584C174.076 13.502 175.714 15.182 177.66 15.14C179.606 15.182 181.286 13.502 181.244 11.584C181.286 9.638 179.62 8 177.674 8.028C175.728 7.986 174.062 9.638 174.104 11.584ZM180.138 11.598C180.138 13.026 179.046 14.146 177.66 14.146C176.274 14.146 175.21 13.026 175.21 11.598C175.21 10.128 176.274 9.022 177.674 9.022C179.06 9.022 180.138 10.128 180.138 11.598ZM193.093 10.716C193.093 9.092 192.183 8.028 190.615 8.028C189.607 8.028 188.781 8.49 188.277 9.204C187.885 8.462 187.171 8.028 186.177 8.028C185.337 8.028 184.637 8.336 184.147 8.896V8.182H183.139V15H184.217V10.856C184.217 9.778 184.931 9.022 185.953 9.022C186.947 9.022 187.577 9.75 187.577 10.856V15H188.655V10.758C188.655 9.792 189.383 9.022 190.405 9.022C191.413 9.022 192.015 9.75 192.015 10.856V15H193.093V10.716Z" fill="#3D3D3D"/>
<path d="M14.6208 8.51582C14.6208 8.51582 11.9457 11.7263 9.98917 11.7263C8.03345 11.7263 5.32835 8.51582 5.32835 8.51582" stroke="#46A358" stroke-width="1.5" stroke-linecap="round" stroke-linejoin="round"/>
<path fill-rule="evenodd" clip-rule="evenodd" d="M2.0434 10.974C2.0434 5.27556 4.02752 3.37665 9.9799 3.37665C15.9323 3.37665 17.9164 5.27556 17.9164 10.974C17.9164 16.6716 15.9323 18.5713 9.9799 18.5713C4.02752 18.5713 2.0434 16.6716 2.0434 10.974Z" stroke="#46A358" stroke-width="1.5" stroke-linecap="round" stroke-linejoin="round"/>
</svg>
