<svg width="205" height="44" viewBox="0 0 205 44" fill="none" xmlns="http://www.w3.org/2000/svg">
<path d="M29.49 5.76V6.74H34.194L29.798 15H30.988L35.664 6.082V5.76H29.49ZM36.5138 10.296C36.5138 11.71 36.7938 12.886 37.3538 13.796C37.9278 14.706 38.7678 15.154 39.9018 15.154C41.0358 15.154 41.8758 14.706 42.4358 13.796C42.9958 12.886 43.2758 11.71 43.2758 10.296C43.2758 8.882 42.9958 7.748 42.4218 6.894C41.8618 6.04 41.0218 5.606 39.9018 5.606C38.7818 5.606 37.9418 6.04 37.3678 6.894C36.7938 7.748 36.5138 8.882 36.5138 10.296ZM42.1418 10.31C42.1418 12.662 41.4558 14.146 39.9018 14.146C38.3478 14.146 37.6478 12.662 37.6478 10.31C37.6478 8 38.3338 6.614 39.9018 6.614C41.4698 6.614 42.1418 8 42.1418 10.31ZM60.5197 5.76L57.9717 12.788L55.0877 5.606H54.6957L51.8117 12.802L49.2637 5.76H48.0597L51.5737 15.154H51.9657L54.8917 7.818L57.8177 15.154H58.2097L61.7097 5.76H60.5197ZM68.7217 11.92C68.7777 11.64 68.8057 11.374 68.8057 11.108C68.8057 9.302 67.4617 8.028 65.6977 8.028C63.7517 8.028 62.2117 9.624 62.2117 11.598C62.2117 13.6 63.7937 15.154 65.8237 15.154C66.9017 15.154 67.8397 14.706 68.5537 13.964L67.9237 13.236C67.3077 13.852 66.6077 14.16 65.8377 14.16C64.4937 14.16 63.4577 13.264 63.3317 11.92H68.7217ZM63.3737 10.968C63.6117 9.792 64.5357 9.008 65.6697 9.008C66.8037 9.008 67.6857 9.75 67.6997 10.968H63.3737ZM70.0558 13.824C70.6578 14.608 71.5818 15.154 72.7158 15.154C73.3878 15.154 73.9478 14.986 74.4098 14.636C74.8718 14.286 75.1098 13.782 75.1098 13.152C75.1098 12.214 74.5778 11.682 73.3038 11.136L72.6738 10.87C71.8478 10.52 71.5678 10.31 71.5678 9.876C71.5678 9.33 72.0298 9.022 72.7018 9.022C73.3318 9.022 73.9198 9.316 74.3818 9.778L75.0398 9.106C74.4798 8.434 73.7098 8.028 72.7578 8.028C71.4558 8.028 70.4618 8.742 70.4618 9.932C70.4618 10.842 71.0218 11.36 72.1558 11.822L72.8138 12.102C73.6538 12.438 74.0038 12.648 74.0038 13.194C74.0038 13.796 73.4438 14.16 72.7018 14.16C71.9318 14.16 71.3998 13.782 70.7418 13.11L70.0558 13.824ZM80.7812 14.09C80.4312 14.146 80.1372 14.174 79.8712 14.174C78.9332 14.174 78.4292 13.838 78.4292 12.872V9.148H80.5572V8.182H78.4292V6.32H77.3512V8.182H76.2032V9.148H77.3512V12.942C77.3512 14.44 78.2332 15.154 79.6472 15.154C79.9692 15.154 80.3472 15.098 80.7812 15V14.09ZM93.131 12.34C93.131 11.15 92.459 10.254 91.325 9.918C91.885 9.484 92.207 8.868 92.207 8.098C92.207 7.412 91.969 6.852 91.493 6.418C91.017 5.984 90.373 5.76 89.575 5.76H86.397V15H90.205C92.011 15 93.131 13.88 93.131 12.34ZM89.463 6.74C90.527 6.74 91.087 7.286 91.087 8.168C91.087 9.05 90.513 9.61 89.463 9.61H87.489V6.74H89.463ZM92.011 12.312C92.011 13.334 91.311 14.02 90.093 14.02H87.489V10.604H90.093C91.311 10.604 92.011 11.29 92.011 12.312ZM94.856 12.284C94.856 14.006 96.088 15.154 97.684 15.154C99.266 15.154 100.498 14.006 100.498 12.284V8.182H99.42V12.354C99.42 13.432 98.678 14.16 97.684 14.16C96.676 14.16 95.92 13.46 95.92 12.354V8.182H94.856V12.284ZM102.284 11.584C102.284 13.558 103.88 15.154 105.854 15.154C107.044 15.154 108.038 14.58 108.654 13.67L107.884 13.068C107.338 13.796 106.666 14.16 105.868 14.16C104.454 14.16 103.39 13.012 103.39 11.584C103.39 10.17 104.454 9.022 105.868 9.022C106.666 9.022 107.352 9.386 107.898 10.128L108.668 9.512C108.052 8.602 107.044 8.028 105.854 8.028C103.908 8 102.242 9.638 102.284 11.584ZM110.485 15H111.563V4.5H110.485V15ZM112.977 11.178L115.931 8.182H114.517L111.675 11.164L114.811 15H116.197L112.977 11.178ZM117.567 15H118.645V8.182H117.567V15ZM117.301 5.578C117.301 6.026 117.665 6.362 118.113 6.362C118.561 6.362 118.911 6.026 118.911 5.578C118.911 5.144 118.547 4.794 118.113 4.794C117.665 4.794 117.301 5.144 117.301 5.578ZM126.654 10.716C126.654 9.106 125.702 8.028 124.12 8.028C123.266 8.028 122.524 8.35 122.02 8.91V8.182H121.012V15H122.09V10.842C122.09 9.778 122.832 9.022 123.882 9.022C124.932 9.022 125.576 9.764 125.576 10.842V15H126.654V10.716ZM134.472 8.182V9.274C133.954 8.49 132.96 8.028 131.882 8.028C129.964 8.028 128.536 9.526 128.536 11.486C128.536 13.46 129.964 14.93 131.882 14.93C132.904 14.93 133.87 14.51 134.416 13.796V14.398C134.416 15.868 133.562 16.68 132.148 16.68C131.126 16.68 130.37 16.274 129.6 15.602L128.97 16.358C129.74 17.128 130.846 17.674 132.176 17.674C134.192 17.674 135.494 16.414 135.494 14.342V8.182H134.472ZM134.43 11.486C134.43 13.138 133.296 13.936 132.05 13.936C130.664 13.936 129.628 12.942 129.628 11.5C129.628 10.072 130.664 9.05 132.05 9.05C133.282 9.05 134.43 9.848 134.43 11.486ZM143.498 10.716C143.498 9.106 142.546 8.028 140.978 8.028C140.124 8.028 139.396 8.378 138.934 8.952V4.5H137.856V15H138.934V10.856C138.934 9.792 139.676 9.022 140.726 9.022C141.776 9.022 142.42 9.75 142.42 10.856V15H143.498V10.716ZM150.896 10.8C150.896 9.008 149.846 8.028 148.236 8.028C147.102 8.028 146.08 8.518 145.464 9.526L146.178 10.114C146.738 9.386 147.34 9.022 148.166 9.022C149.188 9.022 149.818 9.624 149.818 10.744V11.332H147.662C146.192 11.332 145.212 12.074 145.212 13.236C145.212 14.412 146.192 15.154 147.592 15.154C148.586 15.154 149.384 14.79 149.888 14.118V15H150.896V10.8ZM149.818 12.382C149.818 13.432 148.852 14.258 147.732 14.258C146.934 14.258 146.318 13.866 146.318 13.18C146.318 12.55 146.836 12.214 147.788 12.214H149.818V12.382ZM163.136 10.716C163.136 9.092 162.226 8.028 160.658 8.028C159.65 8.028 158.824 8.49 158.32 9.204C157.928 8.462 157.214 8.028 156.22 8.028C155.38 8.028 154.68 8.336 154.19 8.896V8.182H153.182V15H154.26V10.856C154.26 9.778 154.974 9.022 155.996 9.022C156.99 9.022 157.62 9.75 157.62 10.856V15H158.698V10.758C158.698 9.792 159.426 9.022 160.448 9.022C161.456 9.022 162.058 9.75 162.058 10.856V15H163.136V10.716ZM175.141 15H176.303L172.299 5.606H171.893L167.889 15H169.037L169.821 13.124H174.357L175.141 15ZM173.937 12.144H170.241L172.089 7.594L173.937 12.144ZM181.938 8.182L179.684 13.32L177.416 8.182H176.268L179.488 15.154H179.88L183.086 8.182H181.938ZM190.388 11.92C190.444 11.64 190.472 11.374 190.472 11.108C190.472 9.302 189.128 8.028 187.364 8.028C185.418 8.028 183.878 9.624 183.878 11.598C183.878 13.6 185.46 15.154 187.49 15.154C188.568 15.154 189.506 14.706 190.22 13.964L189.59 13.236C188.974 13.852 188.274 14.16 187.504 14.16C186.16 14.16 185.124 13.264 184.998 11.92H190.388ZM185.04 10.968C185.278 9.792 186.202 9.008 187.336 9.008C188.47 9.008 189.352 9.75 189.366 10.968H185.04ZM192.254 14.272C192.254 14.776 192.646 15.154 193.136 15.154C193.626 15.154 194.018 14.776 194.018 14.272C194.018 13.768 193.626 13.39 193.136 13.39C192.646 13.39 192.254 13.768 192.254 14.272ZM30.274 37H31.366V32.912H35.258V31.918H31.366V28.74H36.056V27.76H30.274V37ZM42.2727 32.8C42.2727 31.008 41.2227 30.028 39.6127 30.028C38.4787 30.028 37.4567 30.518 36.8407 31.526L37.5547 32.114C38.1147 31.386 38.7167 31.022 39.5427 31.022C40.5647 31.022 41.1947 31.624 41.1947 32.744V33.332H39.0387C37.5687 33.332 36.5887 34.074 36.5887 35.236C36.5887 36.412 37.5687 37.154 38.9687 37.154C39.9627 37.154 40.7607 36.79 41.2647 36.118V37H42.2727V32.8ZM41.1947 34.382C41.1947 35.432 40.2287 36.258 39.1087 36.258C38.3107 36.258 37.6947 35.866 37.6947 35.18C37.6947 34.55 38.2127 34.214 39.1647 34.214H41.1947V34.382ZM48.1851 30.182C48.0031 30.14 47.8351 30.126 47.6811 30.126C46.8551 30.126 46.0571 30.49 45.5671 31.148V30.182H44.5591V37H45.6371V33.136C45.6371 31.876 46.6311 31.134 47.7791 31.134H48.1851V30.182ZM59.5854 32.716C59.5854 31.092 58.6754 30.028 57.1074 30.028C56.0994 30.028 55.2734 30.49 54.7694 31.204C54.3774 30.462 53.6634 30.028 52.6694 30.028C51.8294 30.028 51.1294 30.336 50.6394 30.896V30.182H49.6314V37H50.7094V32.856C50.7094 31.778 51.4234 31.022 52.4454 31.022C53.4394 31.022 54.0694 31.75 54.0694 32.856V37H55.1474V32.758C55.1474 31.792 55.8754 31.022 56.8974 31.022C57.9054 31.022 58.5074 31.75 58.5074 32.856V37H59.5854V32.716ZM61.8677 37H62.9457V30.182H61.8677V37ZM61.6017 27.578C61.6017 28.026 61.9657 28.362 62.4137 28.362C62.8617 28.362 63.2117 28.026 63.2117 27.578C63.2117 27.144 62.8477 26.794 62.4137 26.794C61.9657 26.794 61.6017 27.144 61.6017 27.578ZM70.955 32.716C70.955 31.106 70.003 30.028 68.421 30.028C67.567 30.028 66.825 30.35 66.321 30.91V30.182H65.313V37H66.391V32.842C66.391 31.778 67.133 31.022 68.183 31.022C69.233 31.022 69.877 31.764 69.877 32.842V37H70.955V32.716ZM78.7727 30.182V31.274C78.2547 30.49 77.2607 30.028 76.1827 30.028C74.2647 30.028 72.8367 31.526 72.8367 33.486C72.8367 35.46 74.2647 36.93 76.1827 36.93C77.2047 36.93 78.1707 36.51 78.7167 35.796V36.398C78.7167 37.868 77.8627 38.68 76.4487 38.68C75.4267 38.68 74.6707 38.274 73.9007 37.602L73.2707 38.358C74.0407 39.128 75.1467 39.674 76.4767 39.674C78.4927 39.674 79.7947 38.414 79.7947 36.342V30.182H78.7727ZM78.7307 33.486C78.7307 35.138 77.5967 35.936 76.3507 35.936C74.9647 35.936 73.9287 34.942 73.9287 33.5C73.9287 32.072 74.9647 31.05 76.3507 31.05C77.5827 31.05 78.7307 31.848 78.7307 33.486ZM87.5608 26.5V31.19C87.0148 30.462 86.0628 30.028 85.0408 30.028C83.1228 30.028 81.6668 31.596 81.6668 33.598C81.6668 35.6 83.1228 37.154 85.0408 37.154C86.1048 37.154 87.0988 36.692 87.6168 35.922V37H88.6388V26.5H87.5608ZM87.5748 33.598C87.5748 35.32 86.4268 36.16 85.1948 36.16C83.8088 36.16 82.7728 35.054 82.7728 33.584C82.7728 32.114 83.8088 31.022 85.1948 31.022C86.4268 31.022 87.5748 31.862 87.5748 33.598ZM96.1125 32.8C96.1125 31.008 95.0625 30.028 93.4525 30.028C92.3185 30.028 91.2965 30.518 90.6805 31.526L91.3945 32.114C91.9545 31.386 92.5565 31.022 93.3825 31.022C94.4045 31.022 95.0345 31.624 95.0345 32.744V33.332H92.8785C91.4085 33.332 90.4285 34.074 90.4285 35.236C90.4285 36.412 91.4085 37.154 92.8085 37.154C93.8025 37.154 94.6005 36.79 95.1045 36.118V37H96.1125V32.8ZM95.0345 34.382C95.0345 35.432 94.0685 36.258 92.9485 36.258C92.1505 36.258 91.5345 35.866 91.5345 35.18C91.5345 34.55 92.0525 34.214 93.0045 34.214H95.0345V34.382ZM98.399 37H99.477V26.5H98.399V37ZM107.864 33.92C107.92 33.64 107.948 33.374 107.948 33.108C107.948 31.302 106.604 30.028 104.84 30.028C102.894 30.028 101.354 31.624 101.354 33.598C101.354 35.6 102.936 37.154 104.966 37.154C106.044 37.154 106.982 36.706 107.696 35.964L107.066 35.236C106.45 35.852 105.75 36.16 104.98 36.16C103.636 36.16 102.6 35.264 102.474 33.92H107.864ZM102.516 32.968C102.754 31.792 103.678 31.008 104.812 31.008C105.946 31.008 106.828 31.75 106.842 32.968H102.516ZM109.912 39.506H110.794L111.368 35.74H110.094L109.912 39.506ZM124.046 27.76V34.704L118.166 27.606H117.774V37H118.866V30.07L124.746 37.154H125.138V27.76H124.046ZM134.476 27.76H133.258L130.724 32.1L128.204 27.76H126.972L130.178 33.178V37H131.27V33.178L134.476 27.76ZM141.79 27.76L138.822 28.74L139.088 29.678L141.104 29.048V37H142.196V27.76H141.79ZM147.095 27.76L144.127 28.74L144.393 29.678L146.409 29.048V37H147.501V27.76H147.095ZM149.502 27.76V28.74H154.206L149.81 37H151L155.676 28.082V27.76H149.502ZM162.801 34.074C162.801 32.352 161.513 31.372 160.113 31.232L162.563 28.082V27.76H157.019V28.768H160.841L158.419 31.862V32.184H159.329C160.827 32.184 161.667 32.898 161.667 34.088C161.667 35.32 160.785 36.146 159.511 36.146C158.461 36.146 157.761 35.572 157.159 34.69L156.389 35.236C157.005 36.356 158.111 37.154 159.525 37.154C161.275 37.154 162.801 35.936 162.801 34.074ZM170.573 34.074C170.573 32.17 169.117 31.218 167.409 31.218C166.961 31.218 166.527 31.26 166.093 31.33V28.74H170.055V27.76H165.001V32.17H167.087C168.599 32.17 169.439 32.87 169.439 34.088C169.439 35.32 168.529 36.146 167.283 36.146C166.177 36.146 165.435 35.572 164.861 34.69L164.105 35.25C164.735 36.37 165.827 37.154 167.297 37.154C169.033 37.154 170.573 35.936 170.573 34.074Z" fill="#3D3D3D"/>
<path fill-rule="evenodd" clip-rule="evenodd" d="M12.0918 17.9254C12.0918 16.7744 11.1591 15.8417 10.0081 15.8417C8.85787 15.8417 7.92517 16.7744 7.92517 17.9254C7.92517 19.0756 8.85787 20.0083 10.0081 20.0083C11.1591 20.0083 12.0918 19.0756 12.0918 17.9254Z" stroke="#46A358" stroke-width="1.5" stroke-linecap="round" stroke-linejoin="round"/>
<path fill-rule="evenodd" clip-rule="evenodd" d="M9.99959 26.5C7.58457 26.5 3.75 22.2989 3.75 17.8322C3.75 14.3354 6.54758 11.5 9.99959 11.5C13.4516 11.5 16.25 14.3354 16.25 17.8322C16.25 22.2989 12.4154 26.5 9.99959 26.5Z" stroke="#46A358" stroke-width="1.5" stroke-linecap="round" stroke-linejoin="round"/>
</svg>
