<svg width="140" height="22" viewBox="0 0 140 22" fill="none" xmlns="http://www.w3.org/2000/svg">
<path d="M31.416 13.768H32.48V11.066H35.042V10.114H32.48V7.454H31.416V10.114H28.784V11.066H31.416V13.768ZM43.114 12.648C43.114 11.542 42.386 10.702 40.916 10.156C42.092 9.638 42.68 8.896 42.68 7.902C42.68 7.188 42.414 6.628 41.868 6.222C41.336 5.816 40.678 5.606 39.88 5.606C39.068 5.606 38.396 5.816 37.85 6.222C37.318 6.628 37.052 7.188 37.052 7.902C37.052 8.952 37.696 9.652 38.816 10.17C37.346 10.688 36.618 11.5 36.618 12.634C36.618 14.132 37.934 15.154 39.88 15.154C41.826 15.154 43.114 14.132 43.114 12.648ZM39.866 9.652C38.69 9.162 38.13 8.728 38.13 7.944C38.13 7.062 38.858 6.544 39.88 6.544C40.888 6.544 41.602 7.062 41.602 7.944C41.602 8.742 41.042 9.19 39.866 9.652ZM42.008 12.606C42.008 13.572 41.238 14.216 39.88 14.216C38.522 14.216 37.724 13.572 37.724 12.606C37.724 11.654 38.466 11.178 39.88 10.674C41.28 11.178 42.008 11.64 42.008 12.606ZM51.2077 12.648C51.2077 11.542 50.4797 10.702 49.0097 10.156C50.1857 9.638 50.7737 8.896 50.7737 7.902C50.7737 7.188 50.5077 6.628 49.9617 6.222C49.4297 5.816 48.7717 5.606 47.9737 5.606C47.1617 5.606 46.4897 5.816 45.9437 6.222C45.4117 6.628 45.1457 7.188 45.1457 7.902C45.1457 8.952 45.7897 9.652 46.9097 10.17C45.4397 10.688 44.7117 11.5 44.7117 12.634C44.7117 14.132 46.0277 15.154 47.9737 15.154C49.9197 15.154 51.2077 14.132 51.2077 12.648ZM47.9597 9.652C46.7837 9.162 46.2237 8.728 46.2237 7.944C46.2237 7.062 46.9517 6.544 47.9737 6.544C48.9817 6.544 49.6957 7.062 49.6957 7.944C49.6957 8.742 49.1357 9.19 47.9597 9.652ZM50.1017 12.606C50.1017 13.572 49.3317 14.216 47.9737 14.216C46.6157 14.216 45.8177 13.572 45.8177 12.606C45.8177 11.654 46.5597 11.178 47.9737 10.674C49.3737 11.178 50.1017 11.64 50.1017 12.606ZM56.8693 10.296C56.8693 11.71 57.1493 12.886 57.7093 13.796C58.2833 14.706 59.1233 15.154 60.2573 15.154C61.3913 15.154 62.2313 14.706 62.7913 13.796C63.3513 12.886 63.6313 11.71 63.6313 10.296C63.6313 8.882 63.3513 7.748 62.7773 6.894C62.2173 6.04 61.3773 5.606 60.2573 5.606C59.1373 5.606 58.2973 6.04 57.7233 6.894C57.1493 7.748 56.8693 8.882 56.8693 10.296ZM62.4973 10.31C62.4973 12.662 61.8113 14.146 60.2573 14.146C58.7033 14.146 58.0033 12.662 58.0033 10.31C58.0033 8 58.6893 6.614 60.2573 6.614C61.8253 6.614 62.4973 8 62.4973 10.31ZM67.9466 5.76L64.9786 6.74L65.2446 7.678L67.2606 7.048V15H68.3526V5.76H67.9466ZM76.8633 8.728C76.8633 6.95 75.4493 5.606 73.7273 5.606C71.9913 5.606 70.5633 6.95 70.5633 8.714C70.5633 10.408 71.9633 11.738 73.5733 11.738C73.8673 11.738 74.1333 11.696 74.3573 11.612L72.0053 15H73.2933L75.5893 11.668C75.9393 11.164 76.1773 10.8 76.3173 10.562C76.4713 10.324 76.5973 10.058 76.6953 9.75C76.8073 9.428 76.8633 9.092 76.8633 8.728ZM75.7853 8.7C75.7853 9.876 74.9033 10.814 73.7273 10.814C72.5513 10.814 71.6413 9.876 71.6413 8.7C71.6413 7.51 72.5513 6.6 73.7273 6.6C74.9033 6.6 75.7853 7.51 75.7853 8.7ZM80.9622 5.76L77.9942 6.74L78.2602 7.678L80.2762 7.048V15H81.3682V5.76H80.9622ZM86.2669 5.76L83.2989 6.74L83.5649 7.678L85.5809 7.048V15H86.6729V5.76H86.2669ZM92.5974 5.76V6.74H97.3014L92.9054 15H94.0954L98.7714 6.082V5.76H92.5974ZM102.509 5.76L99.5411 6.74L99.8071 7.678L101.823 7.048V15H102.915V5.76H102.509ZM104.916 5.76V6.74H109.62L105.224 15H106.414L111.09 6.082V5.76H104.916ZM122.727 12.326H121.383V9.246H120.291V12.326H117.043L119.815 5.76H118.695L115.657 12.97V13.278H120.291V15H121.383V13.278H122.727V12.326ZM130.033 8.728C130.033 6.95 128.619 5.606 126.897 5.606C125.161 5.606 123.733 6.95 123.733 8.714C123.733 10.408 125.133 11.738 126.743 11.738C127.037 11.738 127.303 11.696 127.527 11.612L125.175 15H126.463L128.759 11.668C129.109 11.164 129.347 10.8 129.487 10.562C129.641 10.324 129.767 10.058 129.865 9.75C129.977 9.428 130.033 9.092 130.033 8.728ZM128.955 8.7C128.955 9.876 128.073 10.814 126.897 10.814C125.721 10.814 124.811 9.876 124.811 8.7C124.811 7.51 125.721 6.6 126.897 6.6C128.073 6.6 128.955 7.51 128.955 8.7ZM131.668 10.296C131.668 11.71 131.948 12.886 132.508 13.796C133.082 14.706 133.922 15.154 135.056 15.154C136.19 15.154 137.03 14.706 137.59 13.796C138.15 12.886 138.43 11.71 138.43 10.296C138.43 8.882 138.15 7.748 137.576 6.894C137.016 6.04 136.176 5.606 135.056 5.606C133.936 5.606 133.096 6.04 132.522 6.894C131.948 7.748 131.668 8.882 131.668 10.296ZM137.296 10.31C137.296 12.662 136.61 14.146 135.056 14.146C133.502 14.146 132.802 12.662 132.802 10.31C132.802 8 133.488 6.614 135.056 6.614C136.624 6.614 137.296 8 137.296 10.31Z" fill="#3D3D3D"/>
<path d="M11.9604 3.29175C15.0446 3.63425 17.4813 6.06758 17.8279 9.15175" stroke="#46A358" stroke-width="1.5" stroke-linecap="round" stroke-linejoin="round"/>
<path d="M11.9604 6.24425C13.4363 6.53091 14.5896 7.68508 14.8771 9.16091" stroke="#46A358" stroke-width="1.5" stroke-linecap="round" stroke-linejoin="round"/>
<path fill-rule="evenodd" clip-rule="evenodd" d="M6.41709 14.5825C0.668773 8.83352 1.48617 6.20096 2.09214 5.35263C2.16999 5.21552 4.08875 2.34323 6.14551 4.02839C11.2507 8.23288 4.78761 7.63843 9.07452 11.9261C13.3623 16.2128 12.767 9.74996 16.9716 14.8541C18.6568 16.9117 15.7844 18.8303 15.6482 18.9073C14.7998 19.5141 12.1663 20.3315 6.41709 14.5825Z" stroke="#46A358" stroke-width="1.5" stroke-linecap="round" stroke-linejoin="round"/>
</svg>
